<svg width="39" height="40" viewBox="0 0 39 40" fill="none" xmlns="http://www.w3.org/2000/svg">
<path d="M19.4665 19.9999H12.9691M12.785 20.8516L11.7115 24.0582C11.1236 25.8144 10.8296 26.6925 11.0406 27.2332C11.2238 27.7029 11.6172 28.0589 12.1028 28.1945C12.6618 28.3504 13.5063 27.9704 15.1952 27.2105L26.0225 22.3382C27.671 21.5963 28.4953 21.2254 28.75 20.7102C28.9713 20.2625 28.9713 19.7372 28.75 19.2895C28.4953 18.7744 27.671 18.4034 26.0225 17.6616L15.1765 12.7809C13.4927 12.0232 12.6508 11.6444 12.0923 11.7998C11.6072 11.9348 11.2138 12.2898 11.0299 12.7586C10.8183 13.2983 11.1091 14.1745 11.6907 15.9269L12.787 19.2299C12.8869 19.5309 12.9369 19.6814 12.9566 19.8353C12.9741 19.9719 12.9739 20.1102 12.9561 20.2467C12.936 20.4006 12.8856 20.5509 12.785 20.8516Z" stroke="black" stroke-width="2" stroke-linecap="round" stroke-linejoin="round"/>
</svg>
